<svg width="39" height="40" viewBox="0 0 39 40" fill="#69bcfc" xmlns="http://www.w3.org/2000/svg">
<path fill-rule="evenodd" clip-rule="evenodd" d="M19.646 9.89092L17.9075 8.1552C14.4724 4.72545 8.90283 4.72545 5.46765 8.1552C2.03247 11.585 2.03247 17.1457 5.46765 20.5754L19.6039 34.6893L19.6068 34.6865L19.6489 34.7285L33.7851 20.6146C37.2203 17.1849 37.2203 11.6241 33.7851 8.19438C30.3499 4.76463 24.7804 4.76463 21.3452 8.19438L19.646 9.89092ZM19.6068 30.17L27.5015 22.2878L29.8218 20.0506L29.8241 20.0529L31.5233 18.3564C33.7094 16.1738 33.7094 12.6352 31.5233 10.4526C29.3373 8.27003 25.7931 8.27003 23.607 10.4526L19.6477 14.4057L19.6362 14.3941L19.6344 14.3958L15.6457 10.4134C13.4597 8.23086 9.91547 8.23086 7.72945 10.4134C5.54343 12.596 5.54343 16.1346 7.72945 18.3172L11.7908 22.3722L11.7937 22.3693L19.6068 30.17Z" fill="#69bcfc" fill-opacity="0.9"/>
</svg>
