<svg width="793" height="820" viewBox="0 0 793 820" fill="none" xmlns="http://www.w3.org/2000/svg">
<circle cx="550" cy="383" r="550" fill="#69BCFC"/>
<path d="M377.49 298.684H371.503V319.603H377.49V298.684ZM422.725 308.293H416.73V310.415H422.725V308.293ZM426.091 299.654H416.73V302.025H426.091V299.654ZM426.091 302.569H416.73V304.79H426.091V302.569ZM426.091 305.428H416.73V307.6H426.091V305.428ZM394.365 320.623H401.644V313.17H409.123V305.927H401.644V298.473H394.365V305.927H386.885V313.17H394.365V320.623ZM876.085 819.283H14.0294C14.0294 819.283 -14.352 720.224 79.5321 587.133C132.646 511.842 122.161 459.475 134.076 414.501L75.096 411.27L77.0446 217.157L215.065 217.934L215.289 333.135C223.119 329.982 228.467 328.187 237.966 325.205C356.772 287.878 348.185 359.485 452.982 404.643C557.78 449.805 632.938 468.713 752.788 535.598C823.655 575.148 832.421 625.796 876.085 819.283Z" fill="#FF5545"/>
<path d="M675.366 325.604V311.873C675.366 309.833 677.025 308.182 679.067 308.182H689.969C692.011 308.182 693.676 309.833 693.676 311.873V325.604C693.676 327.638 692.011 329.289 689.969 329.289H679.067C677.025 329.289 675.366 327.638 675.366 325.604ZM737.924 355.201C737.924 340.977 749.55 329.4 763.835 329.4C778.121 329.4 789.741 340.977 789.741 355.201C789.741 369.426 778.121 380.996 763.835 380.996C749.55 380.996 737.924 369.426 737.924 355.201ZM658.871 242.449L641.285 242.449V161.255H658.871V242.449ZM480.413 237.811V165.893C480.413 163.333 482.494 161.255 485.071 161.255H521.89C524.467 161.255 526.548 163.333 526.548 165.893V237.811C526.548 240.371 524.467 242.449 521.89 242.449H485.071C482.494 242.449 480.413 240.371 480.413 237.811ZM297.842 329.162V319.725C297.842 318.627 298.733 317.735 299.84 317.735H304.414C305.521 317.735 306.412 318.627 306.412 319.725V329.162C306.412 330.258 305.521 331.151 304.414 331.151H299.84C298.733 331.151 297.842 330.258 297.842 329.162ZM284.908 509.591C284.247 502.41 289.561 496.065 296.768 495.412C302.917 494.852 308.438 498.62 310.347 504.184C310.369 504.184 310.385 504.178 310.403 504.178L318.617 503.43C320.33 503.275 321.85 504.532 322.006 506.245L322.323 509.72C322.479 511.426 321.215 512.939 319.502 513.094L311.287 513.836C310.82 513.881 310.369 513.809 309.952 513.665C308.093 517.865 304.063 520.958 299.144 521.406C291.937 522.06 285.559 516.768 284.908 509.591ZM409.101 278.618V266.282C409.101 265.779 409.507 265.374 410.008 265.374C410.514 265.374 410.921 265.779 410.921 266.282V278.618C410.921 279.123 410.514 279.526 410.008 279.526C409.507 279.526 409.101 279.123 409.101 278.618ZM403.112 278.618V266.282C403.112 265.779 403.519 265.374 404.02 265.374C404.521 265.374 404.926 265.779 404.926 266.282V278.618C404.926 279.123 404.521 279.526 404.02 279.526C403.519 279.526 403.112 279.123 403.112 278.618ZM397.119 278.618V266.282C397.119 265.779 397.53 265.374 398.031 265.374C398.532 265.374 398.939 265.779 398.939 266.282V278.618C398.939 279.123 398.532 279.526 398.031 279.526C397.53 279.526 397.119 279.123 397.119 278.618ZM391.13 278.618V266.282C391.13 265.779 391.537 265.374 392.044 265.374C392.545 265.374 392.95 265.779 392.95 266.282V278.618C392.95 279.123 392.545 279.526 392.044 279.526C391.537 279.526 391.13 279.123 391.13 278.618ZM385.143 278.618V266.282C385.143 265.779 385.549 265.374 386.05 265.374C386.556 265.374 386.963 265.779 386.963 266.282V278.618C386.963 279.123 386.556 279.526 386.05 279.526C385.549 279.526 385.143 279.123 385.143 278.618ZM371.858 299.919H377.135V318.367H371.858V299.919ZM388.337 306.397H394.843V299.919H401.165V306.397H407.67V312.698H401.165V319.171H394.843V312.698H388.337V306.397ZM418.433 308.448H422.263V310.26H418.433V308.448ZM378.743 337.513H417.264C422.14 337.513 426.091 333.579 426.091 328.724V307.423H418.433V305.61H426.091V304.585H418.433V302.773H426.091V301.748H418.433V299.931H426.091V290.366C426.091 285.517 422.14 281.583 417.264 281.583H378.743C373.867 281.583 369.922 285.517 369.922 290.366V328.724C369.922 333.579 373.867 337.513 378.743 337.513ZM352.213 819.283H14.0295C14.0295 819.283 5.79318 788.482 13.0888 741.801C13.0888 741.801 172.615 726.635 258.647 745.631C262.241 734.786 267.089 723.553 273.127 717.12C287.435 701.853 314.008 695.713 319.118 698.273C324.193 700.817 319.051 748.927 294.313 758.116C295.326 758.692 296.306 759.29 297.241 759.9C357.717 799.267 352.213 819.283 352.213 819.283ZM115.705 332.154C116.061 332.503 116.061 333.08 115.705 333.434L103.657 345.431L99.4941 341.286C99.1372 340.932 99.1372 340.361 99.4941 340.006C99.8498 339.652 100.423 339.652 100.78 340.006L103.657 342.866L114.42 332.154C114.776 331.8 115.349 331.8 115.705 332.154ZM115.705 309.767C116.061 310.121 116.061 310.697 115.705 311.053L103.657 323.05L99.4941 318.905C99.1372 318.55 99.1372 317.973 99.4941 317.619C99.8498 317.264 100.423 317.264 100.78 317.619L103.657 320.49L114.42 309.767C114.776 309.417 115.349 309.417 115.705 309.767ZM115.705 287.384C116.061 287.74 116.061 288.315 115.705 288.665L103.657 300.668L99.4941 296.517C99.1372 296.168 99.1372 295.592 99.4941 295.237C99.8498 294.882 100.423 294.882 100.78 295.237L103.657 298.101L114.42 287.384C114.776 287.035 115.349 287.035 115.705 287.384ZM77.8895 222.588H212.055V409.591H77.8895L77.8895 222.588ZM73.7159 422.813H216.229C220.759 422.813 224.431 419.155 224.431 414.639V213.938C224.431 209.427 220.759 205.77 216.229 205.77H73.7159C69.1806 205.77 65.5079 209.427 65.5079 213.938L65.5079 414.639C65.5079 419.155 69.1806 422.813 73.7159 422.813ZM194.625 512.873C195.866 513.587 196.245 515.194 195.454 516.386L169.343 555.697C168.446 557.049 166.515 557.193 165.424 556.002L158.123 548.011C157.383 547.197 157.266 545.993 157.839 545.057L180.685 507.652C181.391 506.505 182.888 506.123 184.057 506.799L194.625 512.873ZM653.851 548.326C653.851 549.618 652.799 550.665 651.503 550.665H599.991C598.695 550.665 597.643 549.618 597.643 548.326V522.87C597.643 521.578 598.695 520.531 599.991 520.531H648.809C651.296 520.531 653.327 522.509 653.378 524.986L653.851 548.326ZM600.492 815.187C598.527 815.425 596.63 813.081 596.245 809.951C595.867 806.825 597.153 804.099 599.118 803.861C601.082 803.628 602.98 805.972 603.358 809.098C603.742 812.228 602.456 814.954 600.492 815.187ZM586.357 731.955C584.542 732.736 582.049 731.029 580.792 728.142C579.528 725.25 579.974 722.273 581.788 721.486C583.602 720.705 586.095 722.412 587.358 725.299C588.617 728.192 588.171 731.168 586.357 731.955ZM551.068 510.378C549.092 510.378 547.49 507.824 547.49 504.671C547.49 501.524 549.092 498.968 551.068 498.968C553.043 498.968 554.652 501.524 554.652 504.671C554.652 507.824 553.043 510.378 551.068 510.378ZM549.771 663.761C547.957 664.548 545.464 662.842 544.201 659.955C542.942 657.061 543.388 654.086 545.202 653.299C547.017 652.518 549.51 654.219 550.773 657.111C552.031 659.998 551.585 662.979 549.771 663.761ZM536.281 591.102C534.3 591.102 532.697 588.547 532.697 585.399C532.697 582.246 534.3 579.692 536.281 579.692C538.257 579.692 539.859 582.246 539.859 585.399C539.859 588.547 538.257 591.102 536.281 591.102ZM768.171 614.049C795.223 595.285 815.118 567.977 824.641 536.552L826.866 529.209C776.607 482.761 740.049 454.094 722.47 443.316C679.106 416.728 650.267 407.213 616.287 403.312C611.049 402.303 605.74 401.483 600.365 400.89L583.373 390.007H572.21C571.643 393.615 570.997 396.956 570.296 400.076C563.422 400.481 556.522 401.306 549.654 402.62C524.985 407.33 502.84 420.308 485.326 438.239C481.108 442.562 474.574 447.927 464.496 454.41C454.318 460.961 437.538 481.209 422.629 492.951C395.121 514.613 373.545 535.736 345.658 555.509L404.526 663.545L457.073 636.087C487.141 687.8 516.786 706.237 512.879 804.526L514.555 819.283H803.293C803.293 819.283 797.404 795.205 788.383 759.501C780.837 729.616 748.687 694.705 738.375 655.826C732.025 631.904 728.991 607.438 727.6 584.252C741.469 594.498 755.164 604.528 768.171 614.049Z" fill="#278AD6"/>
<path d="M250.906 703.466C249.475 695.918 242.986 685.09 233.431 674.49C235.668 671.725 236.219 666.903 236.269 663.296C236.308 660.741 234.421 658.552 231.866 658.27C225.177 657.522 216.969 656.252 211.982 655.444C201.031 647.758 188.714 641.9 176.293 640.127C140.348 635.006 115.449 668.067 111.047 672.827C82.3148 703.904 98.4588 727.61 106.913 736.505C155.713 735.252 213.719 736.288 255.607 744.988L237.966 728.364C245.563 720.55 252.358 711.135 250.906 703.466ZM158.295 544.31L161.723 538.695L166.242 531.293L179.61 509.415L163.237 500.044C163.237 500.044 135 486.528 117.653 484.55C100.301 482.577 88.9865 485.669 78.8915 485.791C69.6307 485.896 64.2446 493.267 70.8833 498.387C70.8833 498.387 58.3504 504.172 74.3113 511.204C74.3113 511.204 72.1583 520.026 85.2643 522.027C85.2643 522.027 84.807 530.749 103.795 534.495C112.723 536.263 148.389 542.564 158.295 544.31ZM880.514 580.235L826.866 529.209L824.641 536.552C817.266 560.9 803.638 582.756 785.3 600.101L814.411 620.449L762.449 716.965L762.204 717.419L761.999 717.801C756.495 728.025 745.815 734.437 734.167 734.536C732.687 734.548 731.273 734.581 729.954 734.631C728.14 733.755 725.63 733.041 722.246 732.553C722.246 732.553 711.138 731.096 703.358 733.677C695.578 736.266 684.32 735.401 683.246 739.275C682.172 743.154 685.594 745.326 695.884 745.531C698.194 745.576 700.253 745.603 702.084 745.614C695.796 749.216 690.542 752.685 689.451 754.131C686.857 757.573 686.279 764.178 689.451 768.196C689.451 768.196 682.823 776.231 685.701 779.677C688.583 783.119 702.997 779.677 702.997 779.677C702.997 779.677 710.204 788.86 725.48 785.131C725.48 785.131 733.55 794.024 749.984 788.86C766.411 783.695 766.99 780.475 773.618 775.023C780.246 769.57 788.901 750.13 788.901 750.13L796.959 741.907L803.293 735.452L876.73 660.542C878.176 659.068 879.396 657.472 880.47 655.82L880.493 655.826C901.278 636.088 892.485 591.623 880.514 580.235ZM564.135 379.301C567.908 350.596 571.531 295.287 528.095 300.152C494.698 303.893 482.138 314.577 473.678 327.389C464.719 340.954 460.111 356.908 459.86 373.144C459.476 397.749 479.594 429.08 497.742 441.731C508.422 449.173 519.747 446.807 529.892 439.875L536.281 452.886C536.281 452.886 548.658 453.729 561.369 448.193L554.652 436.112C554.652 436.112 566.806 424.271 572.21 390.008L564.135 379.301ZM348.413 560.556L394.392 644.948L342.152 662.038C318.338 669.613 292.265 665.268 272.365 650.201C250.91 633.965 225.505 608.74 204.114 585.992L170.506 553.946L173.082 550.067L195.009 517.057L306.702 587.533L348.413 560.556Z" fill="#9C664B"/>
<path d="M631.084 149.408H614.583C612.112 149.408 610.098 151.414 610.098 153.874V156.772H613.738V153.874C613.738 153.409 614.116 153.032 614.583 153.032H631.084C631.552 153.032 631.93 153.409 631.93 153.874V252.911C631.93 253.383 631.552 253.759 631.084 253.759H614.583C614.116 253.759 613.738 253.383 613.738 252.911V246.932H610.098V252.911C610.098 255.377 612.112 257.383 614.583 257.383H631.084C633.555 257.383 635.569 255.377 635.569 252.911V153.874C635.569 151.414 633.555 149.408 631.084 149.408ZM324.811 211.334C324.816 211.301 324.833 211.272 324.833 211.234V207.604C324.833 206.867 324.232 206.269 323.491 206.269H321.383V212.569H323.491C324.193 212.569 324.756 212.021 324.811 211.334ZM283.668 213.18H285.777V206.878H283.668C283.027 206.878 282.521 207.333 282.388 207.931C282.365 208.02 282.326 208.109 282.326 208.209V211.843C282.326 212.581 282.928 213.18 283.668 213.18ZM364.384 768.063C364.273 767.863 364.017 767.797 363.823 767.907C361.468 769.237 359.276 770.856 357.239 772.645C355.197 774.435 353.355 776.442 351.64 778.547C349.993 780.702 348.462 782.953 347.199 785.352C345.936 787.74 344.868 790.239 344.116 792.827C344.071 792.989 344.145 793.165 344.305 793.238C344.478 793.32 344.684 793.249 344.767 793.077C345.92 790.683 347.15 788.345 348.535 786.106C349.921 783.873 351.395 781.695 353.065 779.667C354.673 777.588 356.46 775.659 358.335 773.815C360.205 771.964 362.209 770.246 364.285 768.584C364.44 768.461 364.485 768.24 364.384 768.063ZM376.289 770.091C402.35 780.27 467.763 819.283 467.763 819.283H352.213C352.213 819.283 356.799 802.458 311.02 769.349C329.758 766.45 359.381 763.491 376.289 770.091ZM150.56 196.355C150.56 192.642 147.538 189.634 143.809 189.634C140.081 189.634 137.064 192.642 137.064 196.355C137.064 200.068 140.081 203.077 143.809 203.077C147.538 203.077 150.56 200.068 150.56 196.355ZM184.045 215.18H103.573C102.532 215.18 101.686 214.337 101.686 213.295V205.138C101.686 200.289 105.633 196.355 110.507 196.355H129.925C129.925 188.719 136.14 182.53 143.809 182.53C151.478 182.53 157.7 188.719 157.7 196.355H177.111C181.987 196.355 185.933 200.289 185.933 205.138V213.295C185.933 214.337 185.092 215.18 184.045 215.18ZM280.1 419.748C276.705 417.521 273.195 415.215 270.155 412.638C250.432 395.936 248.407 367.359 249.152 338.965C249.302 333.489 249.453 327.721 249.403 321.842C249.392 321.848 249.38 321.848 249.37 321.852C248.78 322.013 248.178 322.185 247.583 322.351C247.622 328.037 247.478 333.612 247.338 338.914C246.576 367.758 248.674 396.823 268.976 414.018C272.098 416.667 275.659 419 279.098 421.261C286.728 426.265 293.935 430.992 297.03 438.9C300.101 446.758 297.831 456.898 291.38 464.141C285.955 470.231 277.64 474.686 267.345 477.036C234.6 484.489 196.878 468.525 171.235 436.362C167.773 432.023 164.607 427.484 161.629 422.813H159.481C162.658 427.878 166.07 432.798 169.81 437.487C191.614 464.839 222.061 480.655 250.994 480.655C256.659 480.655 262.275 480.045 267.746 478.798C278.42 476.371 287.063 471.717 292.744 465.337C299.74 457.485 302.089 446.846 298.721 438.245C295.421 429.794 287.63 424.686 280.1 419.748ZM390.017 673.332C374.452 668.344 358.202 665.036 342.297 661.993L342.152 662.038C340.916 662.431 339.676 662.769 338.435 663.102C355.397 666.321 372.85 669.735 389.462 675.054C440.66 691.457 485.304 728.236 512.98 774.491C512.93 773.199 512.875 771.931 512.808 770.672C484.792 725.399 440.561 689.523 390.017 673.332ZM257.862 638.421C220.664 620.643 185.943 590.386 156.554 549.872C154.945 547.651 153.36 545.418 151.795 543.163C151 543.018 150.164 542.874 149.297 542.719C151.195 545.478 153.114 548.222 155.085 550.931C186.194 593.822 223.281 625.293 262.981 642.748C261.29 641.345 259.582 639.899 257.862 638.421ZM799.998 795.964C799.158 795.864 798.312 795.815 797.472 795.742C797.627 796.373 797.783 796.995 797.933 797.598C798.551 797.659 799.169 797.692 799.781 797.765C816.126 799.71 831.325 807.656 842.728 819.283H845.242C833.434 806.681 817.339 798.031 799.998 795.964ZM56.3087 623.475C56.3087 623.48 56.3087 623.48 56.3087 623.48C56.0191 623.984 55.7403 624.483 55.4567 624.982C55.4295 625.032 55.4011 625.087 55.368 625.137C66.1638 636.607 77.105 646.97 88.286 656.297C89.5102 657.317 90.745 658.303 91.9811 659.3C92.332 658.807 92.6995 658.325 93.0552 657.837C91.8582 656.861 90.6458 655.904 89.4546 654.911C78.1909 645.513 67.1777 635.061 56.3087 623.475ZM368.453 729.688C352.213 725.576 335.502 723.476 318.778 722.234C318.639 722.827 318.494 723.42 318.344 724.019C335.084 725.254 351.796 727.338 368.001 731.444C417.416 743.952 461.825 776.53 489.573 819.283H491.743C463.789 775.671 418.679 742.4 368.453 729.688ZM244.839 720.373C253.075 720.993 261.313 721.408 269.498 721.747C269.911 721.138 270.328 720.549 270.751 719.985C262.559 719.652 254.311 719.253 246.063 718.649C245.674 719.226 245.268 719.802 244.839 720.373ZM384.135 385.563C389.617 389.531 395.288 393.631 399.612 398.807C403.447 403.395 406.251 408.871 408.962 414.168C411.7 419.515 414.532 425.04 418.451 429.767C428.09 441.382 442.537 446.242 457.134 446.236C458.709 446.236 460.279 446.165 461.848 446.054C461.741 445.461 461.641 444.873 461.542 444.286C445.986 445.339 430.076 440.938 419.852 428.614C416.063 424.042 413.275 418.607 410.581 413.348C407.826 407.961 404.971 402.393 401.015 397.649C396.546 392.296 390.781 388.129 385.204 384.1C378.827 379.489 372.237 374.723 367.791 368.257C362.994 361.28 360.728 352.164 361.106 342.124C360.517 341.636 359.927 341.153 359.342 340.677C358.67 351.655 361.051 361.663 366.294 369.282C370.913 376.003 377.636 380.864 384.135 385.563ZM868.199 784.266C867.993 783.352 867.792 782.46 867.587 781.55C854.158 771.57 842.588 761.346 832.459 750.535C826.116 743.764 819.215 735.479 812.675 725.88L811.362 727.222C817.901 736.781 824.791 745.01 831.13 751.771C841.759 763.114 853.952 773.82 868.199 784.266ZM790.709 603.88C785.133 620.92 783.258 639.711 785.751 658.342C786.274 662.259 787.009 666.067 787.833 669.813L786.497 672.3C785.445 667.846 784.576 663.274 783.948 658.58C781.388 639.495 783.364 620.232 789.152 602.794L790.709 603.88Z" fill="#E33D3D"/>
<path d="M693.43 326.89C690.754 324.962 687.732 323.858 684.52 323.858C681.304 323.858 678.282 324.962 675.61 326.89C669.311 331.423 664.993 340.594 664.993 351.195C664.993 366.29 673.735 378.53 684.52 378.53C695.301 378.53 704.044 366.29 704.044 351.195C704.044 340.594 699.731 331.423 693.43 326.89ZM763.835 358.636C765.744 358.636 767.286 357.102 767.286 355.201C767.286 353.949 766.602 352.857 765.594 352.258L764.236 336.011L762.205 352.187C761.125 352.768 760.379 353.894 760.379 355.201C760.379 357.102 761.927 358.636 763.835 358.636ZM483.206 233.455C483.206 235.705 485.037 237.528 487.302 237.528H519.659C521.923 237.528 523.754 235.705 523.754 233.455V170.249C523.754 167.999 521.923 166.176 519.659 166.176H487.302C485.037 166.176 483.206 167.999 483.206 170.249V233.455ZM762.032 331.943C749.945 332.869 740.39 342.932 740.39 355.201C740.39 368.073 750.908 378.547 763.835 378.547C776.763 378.547 787.281 368.073 787.281 355.201C787.281 342.932 777.72 332.863 765.633 331.943C765.583 332.902 764.803 333.667 763.835 333.667C762.862 333.667 762.082 332.902 762.032 331.943ZM463.606 236.159V167.545C463.606 161.593 468.453 156.772 474.424 156.772H539.025C539.169 152.179 540.572 143.617 547.974 135.045C561.748 119.09 588.911 111 628.713 111C719.787 111 726.732 165.705 731.803 205.653C733.226 216.853 734.568 227.437 737.584 235.162C740.862 243.552 744.112 250.956 747.251 258.115C756.105 278.302 763.346 294.854 765.187 319.365H768.972V327.865C781.951 330.27 791.779 341.586 791.779 355.201C791.779 370.568 779.268 383.025 763.835 383.025C748.403 383.025 735.892 370.568 735.892 355.201C735.892 341.586 745.72 330.27 758.693 327.865V319.365H761.531C759.684 295.564 752.588 279.333 743.917 259.567C740.762 252.373 737.501 244.932 734.195 236.475C731.018 228.334 729.642 217.54 728.196 206.108C723.02 165.351 716.576 114.624 628.713 114.624C580.619 114.624 559.805 126.964 550.812 137.311C544.15 144.981 542.854 152.721 542.687 156.772H562.838C562.832 156.506 562.877 156.235 563.005 155.98C577.787 125.641 622.759 122.321 658.287 132.08C691.444 141.184 718.931 180.894 713.782 212.237C712.157 222.123 708.657 232.746 703.364 243.829C693.442 264.609 687.815 286.221 686.596 308.182H682.951C684.181 285.677 689.919 263.546 700.081 242.272C705.223 231.499 708.623 221.203 710.193 211.655C715.074 181.925 688.884 144.243 657.318 135.571C623.521 126.289 580.987 129.048 566.7 156.772H631.93V246.932H474.424C468.453 246.932 463.606 242.11 463.606 236.159ZM657.803 166.176H642.353V237.528H657.803V166.176ZM665.671 236.159C665.671 242.11 660.83 246.932 654.853 246.932H635.569V156.772H654.853C660.83 156.772 665.671 161.593 665.671 167.545V236.159ZM227.838 734.714C228.912 734.687 229.913 734.448 230.909 734.132C231.906 733.832 232.852 733.384 233.76 732.874C235.551 731.843 237.176 730.419 238.266 728.646L238.272 728.64C238.356 728.502 238.356 728.325 238.262 728.186C238.245 728.158 238.211 728.158 238.184 728.136C238.044 728.009 237.843 727.964 237.683 728.076L237.66 728.086C236.831 728.646 236.085 729.256 235.273 729.777C234.471 730.309 233.67 730.835 232.841 731.311C231.199 732.303 229.463 733.162 227.693 734.038L227.67 734.049C227.553 734.11 227.471 734.231 227.477 734.37C227.481 734.57 227.643 734.72 227.838 734.714ZM363.823 767.907C361.468 769.237 359.276 770.856 357.239 772.645C355.197 774.435 353.355 776.442 351.64 778.547C349.993 780.702 348.462 782.953 347.199 785.352C345.936 787.74 344.868 790.239 344.116 792.827C344.071 792.988 344.145 793.165 344.305 793.238C344.478 793.32 344.683 793.248 344.767 793.077C345.919 790.682 347.15 788.345 348.534 786.106C349.921 783.873 351.395 781.695 353.065 779.667C354.673 777.588 356.46 775.659 358.335 773.815C360.205 771.964 362.209 770.246 364.285 768.584C364.44 768.461 364.485 768.24 364.384 768.062C364.273 767.862 364.017 767.797 363.823 767.907ZM304.125 722.573C303.942 722.539 303.757 722.655 303.718 722.844L303.714 722.861C302.929 726.701 301.604 730.352 299.812 733.799C297.92 737.191 295.699 740.394 293.173 743.369C290.68 746.373 287.886 749.116 284.98 751.749C282.07 754.37 279.009 756.863 275.826 759.151L275.809 759.157C275.643 759.28 275.592 759.511 275.692 759.695C275.804 759.889 276.06 759.961 276.255 759.85C279.749 757.877 282.966 755.505 286.044 752.962C289.099 750.391 291.954 747.576 294.564 744.528C297.086 741.414 299.389 738.094 301.181 734.487C302.878 730.841 304.053 726.939 304.404 722.944C304.42 722.772 304.303 722.612 304.125 722.573ZM297.074 498.708C291.692 499.196 287.73 503.935 288.219 509.293C288.71 514.646 293.467 518.592 298.844 518.109C304.225 517.621 308.187 512.877 307.698 507.525C307.208 502.166 302.45 498.221 297.074 498.708ZM312.589 501.734L312.79 503.962L317.37 503.546C315.039 493.721 305.772 486.833 295.383 487.775C283.996 488.806 275.609 498.831 276.644 510.168C277.679 521.5 287.747 529.851 299.133 528.821C308.132 528.006 315.244 521.556 317.321 513.294L313.675 513.621L313.809 515.078L309.985 515.421L309.846 513.881C307.943 517.971 303.975 520.968 299.144 521.406C291.937 522.06 285.559 516.768 284.908 509.591C284.247 502.41 289.561 496.065 296.768 495.412C302.083 494.929 306.93 497.678 309.384 502.027L312.589 501.734ZM391.42 462.257C391.42 439.271 372.905 425.555 353.305 411.037C330.626 394.235 304.921 375.195 302.188 337.845C302.05 335.989 302.105 333.622 302.249 331.151H299.84C299.378 331.151 298.971 330.968 298.632 330.702C298.466 333.401 298.404 336.028 298.554 338.112C301.409 377.112 327.827 396.68 351.128 413.94C370.796 428.509 387.786 441.094 387.786 462.257C387.786 470.874 384.592 478.416 378.297 484.667C364.608 498.277 339.018 503.391 321.755 505.313C321.878 505.602 321.978 505.912 322.006 506.245L322.256 508.965C339.987 507.021 366.294 501.718 380.869 487.237C387.87 480.278 391.42 471.876 391.42 462.257ZM293.278 320.069C293.701 322.124 295.527 323.67 297.72 323.67H308.499C310.687 323.67 312.512 322.124 312.934 320.069H324.978C325.212 320.069 325.434 320.046 325.668 320.04C335.562 319.786 343.749 314.012 345.258 306.104L352.325 269.114C352.692 267.186 351.769 265.325 350.16 264.382L354.712 233.804C355.747 226.855 353.56 219.94 348.719 214.836C344.422 210.309 338.367 207.71 332.107 207.71H324.832V211.233C324.832 211.272 324.816 211.301 324.811 211.333H332.107C337.371 211.333 342.458 213.517 346.075 217.324C350.149 221.619 351.985 227.426 351.112 233.272L346.548 263.95C344.979 264.421 343.716 265.707 343.387 267.419L336.319 304.414C335.613 308.11 330.632 311.008 324.978 311.008H310.999C310.28 310.532 309.423 310.254 308.499 310.254H297.72C296.79 310.254 295.933 310.532 295.215 311.008H282.043C276.489 311.008 271.519 308.166 270.728 304.536L262.609 267.308C262.27 265.773 261.196 264.593 259.832 264.055L255.279 233.489C254.412 227.647 256.248 221.835 260.321 217.546C263.934 213.738 269.025 211.556 274.285 211.556H282.326V208.209C282.326 208.109 282.365 208.02 282.388 207.931H274.285C268.029 207.931 261.974 210.524 257.678 215.057C252.831 220.161 250.643 227.072 251.678 234.021L256.176 264.204C254.334 265.097 253.265 267.147 253.716 269.226L261.835 306.453C262.809 310.908 265.942 314.671 270.289 317.11C273.634 318.983 277.697 320.069 282.043 320.069H293.278ZM385.143 278.618C385.143 279.123 385.549 279.526 386.05 279.526C386.556 279.526 386.963 279.123 386.963 278.618V266.282C386.963 265.779 386.556 265.374 386.05 265.374C385.549 265.374 385.143 265.779 385.143 266.282V278.618ZM391.13 278.618C391.13 279.123 391.537 279.526 392.044 279.526C392.545 279.526 392.95 279.123 392.95 278.618V266.282C392.95 265.779 392.545 265.374 392.044 265.374C391.537 265.374 391.13 265.779 391.13 266.282V278.618ZM397.119 278.618C397.119 279.123 397.53 279.526 398.031 279.526C398.532 279.526 398.939 279.123 398.939 278.618V266.282C398.939 265.779 398.532 265.374 398.031 265.374C397.53 265.374 397.119 265.779 397.119 266.282V278.618ZM403.113 278.618C403.113 279.123 403.519 279.526 404.02 279.526C404.521 279.526 404.926 279.123 404.926 278.618V266.282C404.926 265.779 404.521 265.374 404.02 265.374C403.519 265.374 403.113 265.779 403.113 266.282V278.618ZM409.101 278.618C409.101 279.123 409.507 279.526 410.008 279.526C410.515 279.526 410.921 279.123 410.921 278.618V266.282C410.921 265.779 410.515 265.374 410.008 265.374C409.507 265.374 409.101 265.779 409.101 266.282V278.618ZM382.939 278.352V266.799C382.939 265.014 384.391 263.573 386.184 263.573H409.829C411.616 263.573 413.068 265.014 413.068 266.799V278.352C413.068 280.136 411.622 281.577 409.829 281.583H386.184C384.391 281.577 382.939 280.136 382.939 278.352ZM371.858 318.367H377.135V299.919H371.858V318.367ZM388.337 312.698H394.843V319.171H401.165V312.698H407.67V306.397H401.165V299.919H394.843V306.397H388.337V312.698ZM418.433 310.26H422.263V308.448H418.433V310.26ZM369.922 296.889H426.091V299.931H418.433V301.748H426.091V302.774H418.433V304.585H426.091V305.61H418.433V307.423H426.091V322.207H369.922V296.889ZM72.7917 701.687C72.8036 701.692 72.8142 701.708 72.826 701.714C72.8307 701.681 72.8366 701.648 72.8426 701.614C72.826 701.637 72.8095 701.659 72.7917 701.687ZM252.413 774.075C267.651 804.282 253.293 819.283 253.293 819.283H145.29C145.29 819.283 146.676 806.709 130.469 797.404C127.503 795.698 124.525 794.024 121.565 792.361L127.571 796.906C130.036 798.762 132.496 800.685 134.71 802.924C136.925 805.146 138.896 807.712 140.192 810.638C140.815 812.1 141.283 813.641 141.544 815.214C141.728 816.567 141.7 817.942 141.533 819.283C141.505 819.51 141.511 819.742 141.472 819.964C141.433 820.191 141.221 820.341 140.999 820.302C140.788 820.269 140.642 820.081 140.654 819.875V819.87C140.665 819.67 140.638 819.482 140.638 819.283C140.659 816.5 139.925 813.785 138.701 811.325C137.399 808.665 135.567 806.299 133.435 804.182C129.14 799.998 123.981 796.524 119.183 792.678C116.852 790.871 114.537 789.036 112.238 787.192C109.984 785.956 107.753 784.742 105.588 783.568C87.8014 773.948 75.5521 757.041 71.7566 737.823C70.7108 732.519 70.2712 727.05 70.5773 721.498C70.9164 715.49 71.5463 709.356 72.5471 703.393C70.8337 708.658 69.704 714.1 69.203 719.58C68.6795 725.52 68.8355 731.517 69.8316 737.384C69.86 737.562 69.9037 737.734 69.9368 737.911C70.8727 743.602 72.5637 749.172 74.8739 754.469C77.2667 759.928 80.3107 765.126 83.9621 769.886C84.1004 770.068 84.0673 770.324 83.8889 770.461C83.7116 770.594 83.4658 770.567 83.3276 770.406C79.3252 765.829 75.9752 760.664 73.405 755.123C70.8774 749.698 69.1191 743.913 68.1064 738.006C68.0899 737.895 68.0615 737.784 68.0402 737.673C67.1162 731.632 66.9484 725.477 67.6727 719.425C68.3286 713.784 69.7643 708.259 71.857 703.006C69.9817 705.593 68.1395 708.165 66.66 710.924C65.0789 713.85 64.0332 717.032 63.3927 720.3C62.3186 726.219 62.8302 732.464 64.962 738.167C65.19 738.77 65.4134 739.374 65.6804 739.962C65.7584 740.134 65.6804 740.339 65.502 740.416C65.3354 740.494 65.1345 740.421 65.0506 740.261C64.7055 739.59 64.3948 738.909 64.0993 738.216C61.6734 732.552 60.8994 726.18 61.8731 720.04C62.4072 716.594 63.5369 713.235 65.1463 710.132C66.7652 707.035 68.78 704.213 70.7557 701.438C71.7909 700.046 72.787 698.628 73.7442 697.187C74.901 691.983 76.3982 687.014 78.3409 682.53C81.6519 674.888 86.4543 666.942 91.981 659.3C92.3319 658.807 92.6994 658.325 93.0551 657.837C109.622 635.411 132.05 615.971 140.687 615.223C152.441 614.21 158.574 621.33 158.574 621.33C158.574 621.33 165.519 611.971 180.445 615.124C195.37 618.277 214.453 631.072 211.042 654.695C211.042 654.695 211.381 654.95 211.943 655.415C215.461 658.358 228.027 670.117 224.505 685.466H211.994C212.539 686.554 213.051 687.656 213.49 688.791C214.242 690.67 214.776 692.637 215.133 694.637C215.517 696.627 215.694 698.672 215.667 700.7C215.583 704.757 214.932 708.741 213.969 712.62C212.99 716.499 211.76 720.289 210.152 723.958C210.062 724.163 209.824 724.263 209.612 724.168C209.417 724.085 209.322 723.87 209.384 723.675V723.659C210.557 719.907 211.598 716.095 212.4 712.26C213.202 708.425 213.835 704.546 213.853 700.678C213.991 696.827 213.268 692.981 212.044 689.307C211.861 688.764 211.643 688.227 211.438 687.689C212.389 693.568 214.408 709.539 209.551 716.283C209.4 716.499 209.25 716.709 209.094 716.915C205.95 721.177 207.357 727.305 212.155 729.583C216.819 731.799 222.239 735.229 227.342 740.494C227.36 740.516 227.376 740.533 227.399 740.549C239.012 752.569 246.665 763.198 251.573 772.457C251.863 773 252.141 773.543 252.413 774.075ZM109.561 336.992V333.063H95.3641V347.205H109.561V339.552L107.741 341.364V345.392H103.696L103.657 345.431L103.618 345.392H97.1839V334.881H107.741V338.799L109.561 336.992ZM109.561 314.605V310.936H95.3641V325.078H109.561V317.17L107.741 318.983V323.265H97.1839V312.748H107.741V316.417L109.561 314.605ZM109.561 292.222V288.809H95.3641V302.951H109.561V294.788L107.741 296.594V301.138H97.1839V290.621H107.741V294.034L109.561 292.222ZM180.923 344.623C180.923 345.122 181.33 345.531 181.831 345.531H193.423C193.929 345.531 194.335 345.122 194.335 344.623C194.335 344.124 193.929 343.719 193.423 343.719H181.831C181.33 343.719 180.923 344.124 180.923 344.623ZM139.864 345.531H174.045C174.546 345.531 174.952 345.122 174.952 344.623C174.952 344.124 174.546 343.719 174.045 343.719H139.864C139.363 343.719 138.956 344.124 138.956 344.623C138.956 345.122 139.363 345.531 139.864 345.531ZM156.954 334.742C156.453 334.742 156.042 335.147 156.042 335.646C156.042 336.149 156.453 336.554 156.954 336.554H179.332C179.839 336.554 180.239 336.149 180.239 335.646C180.239 335.147 179.839 334.742 179.332 334.742H156.954ZM117.063 343.719C116.562 343.719 116.156 344.124 116.156 344.623C116.156 345.122 116.562 345.531 117.063 345.531H135.512C136.013 345.531 136.419 345.122 136.419 344.623C136.419 344.124 136.013 343.719 135.512 343.719H117.063ZM151.996 335.646C151.996 335.147 151.589 334.742 151.088 334.742H117.063C116.562 334.742 116.156 335.147 116.156 335.646C116.156 336.149 116.562 336.554 117.063 336.554H151.088C151.589 336.554 151.996 336.149 151.996 335.646ZM181.831 301.271H193.423C193.929 301.271 194.335 300.868 194.335 300.369C194.335 299.87 193.929 299.459 193.423 299.459H181.831C181.33 299.459 180.923 299.87 180.923 300.369C180.923 300.868 181.33 301.271 181.831 301.271ZM190.439 321.586H156.954C156.453 321.586 156.042 321.997 156.042 322.496C156.042 322.995 156.453 323.398 156.954 323.398H190.439C190.946 323.398 191.353 322.995 191.353 322.496C191.353 321.997 190.946 321.586 190.439 321.586ZM174.952 313.519C174.952 313.02 174.546 312.615 174.045 312.615H147.905C147.399 312.615 146.993 313.02 146.993 313.519C146.993 314.016 147.399 314.427 147.905 314.427H174.045C174.546 314.427 174.952 314.016 174.952 313.519ZM117.063 323.398H152.596C153.097 323.398 153.51 322.995 153.51 322.496C153.51 321.997 153.097 321.586 152.596 321.586H117.063C116.562 321.586 116.156 321.997 116.156 322.496C116.156 322.995 116.562 323.398 117.063 323.398ZM117.063 314.427H142.034C142.54 314.427 142.947 314.016 142.947 313.519C142.947 313.02 142.54 312.615 142.034 312.615H117.063C116.562 312.615 116.156 313.02 116.156 313.519C116.156 314.016 116.562 314.427 117.063 314.427ZM174.045 299.459H139.864C139.363 299.459 138.956 299.87 138.956 300.369C138.956 300.868 139.363 301.271 139.864 301.271H174.045C174.546 301.271 174.952 300.868 174.952 300.369C174.952 299.87 174.546 299.459 174.045 299.459ZM156.954 292.294H179.332C179.839 292.294 180.239 291.889 180.239 291.392C180.239 290.893 179.839 290.482 179.332 290.482H156.954C156.453 290.482 156.042 290.893 156.042 291.392C156.042 291.889 156.453 292.294 156.954 292.294ZM117.063 301.271H135.512C136.013 301.271 136.419 300.868 136.419 300.369C136.419 299.87 136.013 299.459 135.512 299.459H117.063C116.562 299.459 116.156 299.87 116.156 300.369C116.156 300.868 116.562 301.271 117.063 301.271ZM116.156 291.392C116.156 291.889 116.562 292.294 117.063 292.294H151.088C151.589 292.294 151.996 291.889 151.996 291.392C151.996 290.893 151.589 290.482 151.088 290.482H117.063C116.562 290.482 116.156 290.893 116.156 291.392ZM92.2031 393.77H121.705C122.206 393.77 122.611 393.365 122.611 392.866C122.611 392.362 122.206 391.958 121.705 391.958H92.2031C91.7033 391.958 91.2968 392.362 91.2968 392.866C91.2968 393.365 91.7033 393.77 92.2031 393.77ZM136.218 382.98H122.695C122.194 382.98 121.788 383.385 121.788 383.89C121.788 384.388 122.194 384.793 122.695 384.793H136.218C136.725 384.793 137.132 384.388 137.132 383.89C137.132 383.385 136.725 382.98 136.218 382.98ZM92.2031 384.793H116.067C116.574 384.793 116.979 384.388 116.979 383.89C116.979 383.385 116.574 382.98 116.067 382.98H92.2031C91.7033 382.98 91.2968 383.385 91.2968 383.89C91.2968 384.388 91.7033 384.793 92.2031 384.793ZM92.2031 375.815H136.218C136.725 375.815 137.132 375.411 137.132 374.913C137.132 374.408 136.725 374.003 136.218 374.003H92.2031C91.7033 374.003 91.2968 374.408 91.2968 374.913C91.2968 375.411 91.7033 375.815 92.2031 375.815ZM92.2031 257.798H121.705C122.206 257.798 122.611 257.395 122.611 256.896C122.611 256.391 122.206 255.986 121.705 255.986H92.2031C91.7033 255.986 91.2968 256.391 91.2968 256.896C91.2968 257.395 91.7033 257.798 92.2031 257.798ZM137.132 247.919C137.132 247.414 136.725 247.015 136.218 247.015H122.695C122.194 247.015 121.788 247.414 121.788 247.919C121.788 248.417 122.194 248.821 122.695 248.821H136.218C136.725 248.821 137.132 248.417 137.132 247.919ZM92.2031 248.821H116.067C116.574 248.821 116.979 248.417 116.979 247.919C116.979 247.414 116.574 247.015 116.067 247.015H92.2031C91.7033 247.015 91.2968 247.414 91.2968 247.919C91.2968 248.417 91.7033 248.821 92.2031 248.821ZM92.2031 239.844H136.218C136.725 239.844 137.132 239.44 137.132 238.941C137.132 238.442 136.725 238.038 136.218 238.038H92.2031C91.7033 238.038 91.2968 238.442 91.2968 238.941C91.2968 239.44 91.7033 239.844 92.2031 239.844ZM513.943 428.532L513.904 428.553C513.097 429.002 512.374 429.473 511.561 429.773C510.754 430.078 509.953 430.371 509.096 430.526C507.41 430.903 505.617 431.008 503.781 431.053L503.748 431.058C503.62 431.058 503.497 431.135 503.441 431.258C503.358 431.436 503.436 431.646 503.614 431.728C504.532 432.156 505.495 432.35 506.485 432.45C507.471 432.554 508.478 432.483 509.474 432.299C510.459 432.106 511.433 431.734 512.302 431.197C513.186 430.681 513.926 429.95 514.488 429.135C514.578 429.008 514.594 428.837 514.51 428.692C514.399 428.493 514.149 428.42 513.943 428.532ZM510.71 428.686C513.331 427.678 515.656 426.148 517.761 424.414C519.09 423.273 520.326 422.042 521.461 420.729C522.095 419.991 522.708 419.233 523.264 418.429C523.381 418.269 523.359 418.042 523.214 417.903C523.048 417.742 522.786 417.748 522.63 417.914L522.613 417.925C522.212 418.341 521.779 418.734 521.362 419.138C519.892 420.563 518.367 421.937 516.753 423.162C514.66 424.702 512.468 426.138 510.069 426.991C508.884 427.456 507.665 427.794 506.413 427.966C505.155 428.127 503.881 428.115 502.601 428.038C500.052 427.833 497.475 427.129 495.105 426.082L495.076 426.071C494.922 426.005 494.737 426.054 494.649 426.199C494.542 426.359 494.587 426.575 494.743 426.675C497.052 428.193 499.668 429.146 502.423 429.557C505.173 429.988 508.077 429.645 510.71 428.686ZM519.491 380.342C521.518 380.498 523.492 381.058 525.507 381.595L525.541 381.606C525.73 381.656 525.936 381.567 526.02 381.391C526.119 381.185 526.03 380.935 525.825 380.841C524.862 380.387 523.882 379.927 522.869 379.545C521.824 379.279 520.799 378.869 519.708 378.753C517.56 378.297 515.307 378.442 513.142 378.835C510.977 379.262 508.901 380.143 507.087 381.362C505.267 382.577 503.664 384.072 502.462 385.906C502.373 386.039 502.39 386.223 502.507 386.339C502.64 386.472 502.862 386.477 502.996 386.344L503.024 386.317C504.465 384.892 506.124 383.634 507.888 382.671C509.663 381.712 511.538 380.958 513.508 380.603C515.467 380.254 517.482 380.088 519.491 380.342ZM480.635 388.865H480.658C480.83 388.877 480.997 388.771 481.058 388.599C481.142 388.389 481.036 388.145 480.819 388.067C480.201 387.834 479.567 387.658 478.926 387.458C478.271 387.358 477.62 387.208 476.946 387.147C475.605 387.02 474.235 387.108 472.888 387.397C471.565 387.73 470.257 388.251 469.137 389.054C468.014 389.852 467.034 390.822 466.422 392.091C466.361 392.218 466.383 392.373 466.483 392.484C466.622 392.617 466.839 392.623 466.979 392.484L467.012 392.451C467.868 391.619 468.887 390.899 469.945 390.362C471.013 389.824 472.132 389.419 473.295 389.165C474.463 388.899 475.666 388.805 476.89 388.749C478.115 388.711 479.349 388.816 480.635 388.865ZM500.347 417.321C501.967 416.412 503.486 415.348 504.91 414.273L504.927 414.262C505.089 414.141 505.138 413.913 505.039 413.73C504.927 413.536 504.672 413.47 504.477 413.58C502.874 414.484 501.365 415.421 499.746 416.135C498.171 416.85 496.452 417.504 494.916 417.355C494.17 417.271 493.513 417.028 493.04 416.517C492.601 415.991 492.221 415.298 492.01 414.478C491.531 412.877 491.365 411.104 491.26 409.347C490.997 405.812 491.182 402.226 491.254 398.613C491.237 397.676 491.354 396.878 491.153 395.748C490.919 394.711 490.385 393.842 489.773 393.099C488.499 391.642 486.985 390.556 485.326 389.703C485.17 389.625 484.981 389.669 484.882 389.813C484.77 389.969 484.809 390.184 484.965 390.296L484.981 390.306C486.423 391.304 487.826 392.462 488.805 393.848C489.294 394.529 489.679 395.271 489.796 396.009C489.896 396.674 489.762 397.688 489.723 398.547C489.462 402.143 489.278 405.784 489.445 409.458C489.573 411.292 489.773 413.143 490.346 414.999C490.613 415.919 491.081 416.872 491.827 417.698C492.601 418.54 493.78 418.922 494.815 418.95C496.941 419.011 498.695 418.152 500.347 417.321ZM701.389 574.361C703.815 575.125 706.33 575.647 708.869 575.923C711.261 576.172 713.687 576.068 716.058 575.702C716.08 575.696 716.103 575.696 716.131 575.69C716.364 575.884 716.593 576.084 716.826 576.272C720.276 579.109 723.766 581.897 727.344 584.573C727.428 584.629 727.528 584.646 727.623 584.64C727.734 584.629 727.845 584.591 727.917 584.491C727.917 584.491 727.917 584.491 727.917 584.485C728.057 584.307 728.018 584.053 727.84 583.914C722.281 579.553 716.904 574.931 711.668 570.187C706.408 565.455 701.305 560.562 696.424 555.458C691.538 550.366 686.83 545.101 682.562 539.505C678.299 533.919 674.42 528.006 671.515 521.667C670.04 518.492 668.982 515.21 668.282 511.781C667.497 508.368 667.046 504.892 666.735 501.412C666.195 494.441 666.573 487.393 667.982 480.532C669.35 473.661 671.794 467.022 674.982 460.766C678.204 454.543 682.183 448.608 687.064 443.571L687.086 443.549C687.214 443.41 687.214 443.194 687.075 443.061C686.941 442.928 686.719 442.928 686.586 443.067C676.551 453.219 669.59 466.28 666.546 480.233C665.01 487.21 664.531 494.414 665.07 501.54C665.371 505.098 665.821 508.65 666.601 512.135C667.296 515.638 668.399 519.134 669.896 522.387C672.823 528.954 676.824 534.928 681.159 540.568C685.512 546.216 690.264 551.518 695.229 556.606C701.539 563.006 708.189 569.052 715.079 574.809C715.001 574.804 714.924 574.804 714.85 574.804C712.903 574.765 710.978 574.659 709.068 574.332C706.659 573.917 704.26 573.435 701.935 572.637C699.585 571.939 697.299 571.025 695.038 570.05C692.785 569.057 690.559 567.949 688.406 566.758L688.389 566.746C688.244 566.668 688.06 566.703 687.948 566.83C687.826 566.979 687.849 567.196 687.999 567.318C689.975 568.924 692.134 570.243 694.371 571.424C696.613 572.604 698.979 573.541 701.389 574.361ZM752.633 775.488L752.627 775.493C750.395 776.381 748.158 777.262 745.915 778.103C743.668 778.941 741.43 779.794 739.148 780.525C736.9 781.346 734.613 782.043 732.325 782.736C730.038 783.462 727.723 784.049 725.407 784.726H725.397C725.208 784.781 725.08 784.963 725.101 785.169C725.101 785.18 725.119 785.186 725.119 785.202C725.163 785.407 725.341 785.556 725.559 785.529C725.653 785.523 725.752 785.501 725.853 785.49C728.168 785.23 730.478 784.842 732.743 784.288C735.114 783.728 737.44 783.002 739.743 782.231C742.025 781.395 744.301 780.536 746.505 779.511C748.715 778.497 750.88 777.405 752.95 776.109C753.089 776.021 753.151 775.843 753.089 775.682C753.017 775.505 752.81 775.422 752.633 775.488ZM742.916 764.095C743.089 763.983 743.15 763.756 743.054 763.568C742.949 763.363 742.699 763.286 742.499 763.39L742.493 763.396C739.265 765.042 736.009 766.649 732.715 768.146C729.42 769.641 726.12 771.089 722.708 772.263C719.315 773.537 715.864 774.673 712.43 775.876C708.996 777.068 705.558 778.254 702.14 779.511C701.978 779.573 701.884 779.744 701.917 779.91C701.923 779.916 701.917 779.916 701.917 779.921C701.962 780.104 702.151 780.221 702.34 780.176C702.641 780.104 702.935 780.021 703.237 779.949C706.48 779.156 709.697 778.27 712.903 777.328C716.403 776.303 719.865 775.156 723.326 773.964C726.771 772.706 730.155 771.238 733.417 769.586C736.683 767.924 739.872 766.14 742.916 764.095ZM712.369 741.014C710.989 741.314 709.637 741.713 708.312 742.189C708.023 742.289 707.727 742.372 707.438 742.484C705.841 743.109 704.283 743.819 702.836 744.782C702.707 744.872 702.646 745.032 702.701 745.187C702.707 745.21 702.73 745.215 702.74 745.237C702.824 745.375 702.98 745.459 703.142 745.404L703.159 745.398C706.308 744.334 709.514 743.441 712.747 742.782C714.361 742.445 715.992 742.167 717.628 741.929C719.27 741.668 720.923 741.547 722.591 741.336H722.603C722.786 741.314 722.936 741.169 722.965 740.981C722.993 740.754 722.837 740.549 722.609 740.516C719.208 740.061 715.725 740.3 712.369 741.014ZM723.493 753.699C727.567 752.968 731.691 752.408 735.814 751.886C736.021 751.859 736.188 751.677 736.182 751.466C736.176 751.238 735.987 751.062 735.759 751.066C731.563 751.16 727.395 751.538 723.238 752.115C719.097 752.757 714.895 753.528 710.939 755.278C707.104 757.074 703.453 759.086 699.852 761.208C696.258 763.341 692.719 765.547 689.268 767.901C689.123 768.001 689.073 768.195 689.162 768.351C689.184 768.39 689.229 768.406 689.262 768.434C689.367 768.517 689.501 768.561 689.63 768.49L700.61 762.537C704.277 760.593 707.922 758.581 711.679 756.93C715.347 755.234 719.436 754.481 723.493 753.699ZM861.932 607.149C860.747 606.834 859.562 606.507 858.365 606.191C857.447 605.953 856.518 605.72 855.583 605.536C853.412 605.27 851.247 604.8 849.044 604.816C847.941 604.783 846.84 604.712 845.743 604.745L842.443 605.01C841.341 605.049 840.261 605.305 839.177 605.487C838.092 605.698 836.989 605.836 835.938 606.185C831.669 607.311 827.59 609.127 823.889 611.494C820.644 613.578 817.689 616.071 815.191 619.003C814.84 619.412 814.467 619.807 814.139 620.238C814.133 620.244 814.139 620.249 814.133 620.255C814.039 620.388 814.049 620.582 814.178 620.698C814.2 620.721 814.234 620.715 814.261 620.731C814.395 620.798 814.556 620.798 814.668 620.682L814.684 620.659C817.606 617.578 821.034 614.936 824.696 612.796C828.369 610.668 832.276 608.917 836.406 607.936C840.501 606.894 844.741 606.258 848.999 606.418C851.136 606.301 853.246 606.683 855.376 606.851C857.196 607.049 858.989 607.465 860.808 607.781C861.109 607.836 861.41 607.892 861.71 607.942L861.766 607.947C861.971 607.981 862.172 607.853 862.222 607.648C862.283 607.432 862.156 607.205 861.932 607.149ZM311.048 590.331C310.024 588.967 308.682 587.859 307.058 587.305C306.975 587.272 306.902 587.233 306.824 587.206C306.68 587.161 306.518 587.217 306.429 587.35C306.429 587.355 306.429 587.355 306.429 587.355C306.329 587.515 306.379 587.726 306.54 587.826L306.579 587.854C307.893 588.68 309 589.871 309.768 591.179C310.537 592.503 311.009 593.977 311.221 595.512C311.498 597.036 311.393 598.627 311.326 600.217C311.171 601.813 310.882 603.403 310.619 605.038V605.055C310.586 605.238 310.687 605.42 310.864 605.498C311.071 605.592 311.315 605.493 311.404 605.282C311.744 604.512 312.011 603.708 312.317 602.916C312.545 602.095 312.718 601.264 312.924 600.428C313.18 598.732 313.318 596.981 313.018 595.236C312.74 593.506 312.133 591.76 311.048 590.331ZM638.825 541.915C637.539 541.699 636.249 541.605 634.963 541.521C633.672 541.433 632.386 541.427 631.096 541.422C629.81 541.439 628.524 541.461 627.233 541.56C625.947 541.65 624.657 541.76 623.371 541.981C623.226 542.004 623.109 542.114 623.081 542.265C623.048 542.458 623.176 542.635 623.371 542.668C624.657 542.891 625.947 543.001 627.233 543.09C628.524 543.19 629.81 543.212 631.096 543.228C632.386 543.223 633.672 543.218 634.963 543.128C636.249 543.046 637.539 542.952 638.825 542.735C638.997 542.707 639.137 542.574 639.17 542.392C639.209 542.171 639.053 541.954 638.825 541.915ZM648.665 535.188C646.555 534.971 644.446 534.877 642.343 534.795C640.233 534.706 638.124 534.7 636.015 534.695C633.911 534.711 631.802 534.734 629.693 534.834C627.584 534.922 625.48 535.033 623.371 535.254C623.209 535.272 623.075 535.393 623.059 535.564C623.036 535.753 623.176 535.924 623.371 535.947C625.48 536.163 627.584 536.274 629.693 536.362C631.802 536.462 633.911 536.485 636.015 536.501C638.124 536.501 640.233 536.49 642.343 536.401C644.446 536.319 646.555 536.225 648.665 536.008C648.854 535.992 649.01 535.836 649.032 535.642C649.053 535.415 648.893 535.21 648.665 535.188ZM648.665 528.461C646.555 528.244 644.446 528.15 642.343 528.072C640.233 527.984 638.124 527.973 636.015 527.968C633.911 527.984 631.802 528.006 629.693 528.106C627.584 528.195 625.48 528.305 623.371 528.528C623.209 528.544 623.075 528.671 623.059 528.832C623.036 529.025 623.176 529.197 623.371 529.219C625.48 529.442 627.584 529.547 629.693 529.636C631.802 529.741 633.911 529.757 636.015 529.774C638.124 529.774 640.233 529.763 642.343 529.675C644.446 529.591 646.555 529.497 648.665 529.281C648.854 529.264 649.01 529.109 649.032 528.915C649.053 528.688 648.893 528.483 648.665 528.461ZM654.63 507.575C650.178 508.245 645.709 508.677 641.218 508.932C637.367 509.104 633.516 509.176 629.66 509.143C629.013 509.137 628.368 509.154 627.728 509.143C623.221 509.104 618.719 508.888 614.216 508.638C609.719 508.378 605.212 508.041 600.721 507.636C600.548 507.619 600.375 507.736 600.342 507.912C600.308 508.101 600.431 508.284 600.62 508.317C605.083 509.165 609.585 509.725 614.099 510.163C617.672 510.507 621.25 510.695 624.84 510.834V523.401C624.84 523.9 625.246 524.305 625.747 524.305C626.248 524.305 626.659 523.9 626.659 523.401V510.906C627.005 510.916 627.35 510.938 627.695 510.949C629.081 510.961 630.466 510.949 631.852 510.933C635.013 510.894 638.174 510.783 641.33 510.534C645.859 510.118 650.378 509.481 654.802 508.378C655.003 508.323 655.143 508.123 655.108 507.912C655.069 507.685 654.858 507.536 654.63 507.575ZM70.8668 498.731C73.1368 499.08 75.4139 499.318 77.6957 499.534C79.9716 499.761 82.2534 499.884 84.5352 500.066C86.8218 500.16 89.1036 500.299 91.3913 500.349C93.3222 500.387 95.253 500.404 97.1898 500.365C99.5886 501.524 102.088 502.344 104.608 503.037C106.356 503.502 108.12 503.884 109.885 504.239C109.756 506.472 109.912 508.689 110.213 510.894C110.329 511.726 110.501 512.552 110.669 513.372C107.897 513.161 105.126 513.039 102.355 512.973L92.944 512.84C89.8161 512.795 86.6942 512.634 83.5828 512.429C82.0254 512.313 80.4833 512.147 78.9471 511.92C78.1849 511.808 77.4168 511.681 76.6712 511.509L75.5521 511.233L75.0074 511.061L74.7285 510.971L74.595 510.928L74.5229 510.91L74.4733 510.894L74.4674 510.889C74.4012 511.027 74.6009 510.573 74.3114 511.204C74.0278 511.83 74.2393 511.376 74.1778 511.521L74.1897 511.526L74.2062 511.531L74.3055 511.581L74.4449 511.642L74.7179 511.769L75.2744 512.024C75.6467 512.18 76.0307 512.29 76.41 512.429C77.1781 512.679 77.9509 512.877 78.7249 513.072C80.2836 513.437 81.8576 513.665 83.4268 513.887C86.5772 514.335 89.7381 514.457 92.8932 514.601C96.0495 514.75 99.2105 514.674 102.349 514.674C105.181 514.623 108.014 514.519 110.846 514.319C111.136 515.627 111.476 516.923 111.865 518.204C112.672 520.575 113.551 522.925 114.715 525.142C115.082 525.872 115.505 526.565 115.923 527.269C113.713 526.698 111.493 526.189 109.267 525.7C106.629 525.136 103.98 524.643 101.33 524.116C98.6763 523.667 96.027 523.163 93.3553 522.764C90.6894 522.354 88.0188 521.966 85.3305 521.684C85.1639 521.667 85.002 521.772 84.9583 521.938C84.9524 521.95 84.963 521.954 84.9583 521.966C84.924 522.138 85.0244 522.316 85.2029 522.365C85.2253 522.371 85.2525 522.376 85.2809 522.387C87.8628 523.091 90.4672 523.69 93.0717 524.266C95.7044 524.853 98.3585 525.346 100.996 525.89C103.657 526.355 106.301 526.859 108.966 527.281C111.476 527.673 113.986 528.045 116.517 528.322C117.197 529.403 117.926 530.456 118.694 531.475C118.811 531.63 119.027 531.685 119.211 531.591C119.411 531.491 119.495 531.242 119.39 531.043L119.384 531.027C118.265 528.837 117.108 526.698 116.172 524.454C115.176 522.243 114.313 519.971 113.596 517.66C112.795 515.372 112.243 513.006 111.727 510.634C111.286 508.583 110.963 506.489 110.741 504.399C113.958 505.015 117.203 505.475 120.469 505.824C120.869 508.722 121.621 511.476 122.695 514.153C123.874 517.028 125.445 519.755 127.415 522.177C128.372 523.412 129.518 524.482 130.658 525.551C131.249 526.056 131.911 526.488 132.529 526.959C133.135 527.452 133.815 527.839 134.509 528.205C137.175 529.851 140.219 530.677 143.22 531.37C143.431 531.42 143.649 531.292 143.709 531.076C143.77 530.86 143.643 530.638 143.419 530.577L143.38 530.567C140.492 529.774 137.594 528.865 135.117 527.191C132.59 525.635 130.336 523.639 128.549 521.279C126.735 518.94 125.289 516.319 124.225 513.548C123.18 510.789 122.383 507.852 122.083 504.982L122.005 504.26L121.298 504.189C115.845 503.612 110.368 502.687 105.076 501.302C102.433 500.604 99.8167 499.767 97.4238 498.576C96.2385 497.977 95.097 497.285 94.1907 496.42C93.2832 495.555 92.6876 494.502 92.7101 493.4C92.7266 492.298 93.2666 491.106 94.1127 490.253C94.9635 489.376 96.105 488.728 97.3233 488.251C99.7895 487.298 102.538 486.967 105.254 486.805C110.725 486.562 116.279 487 121.721 487.886L121.732 487.891C121.916 487.92 122.089 487.797 122.128 487.615C122.167 487.431 122.044 487.249 121.855 487.21C116.384 486.118 110.836 485.359 105.204 485.492C102.394 485.597 99.5437 485.852 96.7892 486.838C95.4256 487.337 94.0678 488.036 92.9606 489.133C91.8533 490.23 91.1077 491.715 91.0522 493.372C91.0014 495.068 91.9254 496.598 93.0102 497.628C93.5892 498.187 94.2132 498.664 94.8643 499.085C93.7393 498.958 92.6096 498.852 91.4858 498.747C89.204 498.543 86.9222 498.42 84.6404 498.26C82.3527 498.177 80.072 498.044 77.7784 498.011C75.4919 497.972 73.2041 497.95 70.9058 498.038C70.7994 498.044 70.7226 498.105 70.6612 498.183C70.6222 498.226 70.5832 498.271 70.5773 498.332C70.5666 498.404 70.5938 498.459 70.6222 498.514C70.6659 498.625 70.7439 498.714 70.8668 498.731ZM529.214 442.961C528.996 442.889 528.762 443.011 528.69 443.228C527.951 445.477 527.222 447.716 526.365 449.888C525.502 452.06 524.584 454.205 523.393 456.178L522.958 456.926C522.853 457.076 522.747 457.209 522.608 457.309C522.335 457.502 521.957 457.579 521.612 457.485C521.261 457.403 520.966 457.18 520.805 456.849L520.115 455.269C519.163 453.091 518.189 450.919 517.11 448.791C517.037 448.647 516.87 448.569 516.703 448.614C516.519 448.669 516.408 448.858 516.464 449.046C517.126 451.334 517.895 453.584 518.684 455.829C518.891 456.411 519.035 456.904 519.318 457.552C519.647 458.305 520.36 458.91 521.167 459.125C521.968 459.358 522.869 459.231 523.587 458.76C523.949 458.528 524.239 458.211 524.472 457.873L524.956 457.092C526.17 454.959 527.132 452.72 527.883 450.426C528.612 448.126 529.169 445.782 529.497 443.41C529.52 443.216 529.403 443.022 529.214 442.961ZM558.626 444.519L560.729 448.453L560.813 448.614L561.364 449.639C561.592 450.054 561.904 450.426 562.271 450.737C562.504 450.935 562.777 451.091 563.056 451.224C563.645 451.506 564.297 451.651 564.954 451.606C565.927 451.561 566.884 451.091 567.53 450.381C568.064 449.816 568.581 449.228 569.099 448.641C569.111 448.635 569.115 448.619 569.127 448.608C570.146 447.445 571.142 446.259 572.099 445.04C574.036 442.59 575.85 440.036 577.508 437.381C580.786 432.067 583.402 426.242 585.021 420.236C585.879 417.249 586.685 414.251 587.353 411.209C587.67 409.685 587.954 408.15 588.165 406.604C588.276 405.661 588.393 404.747 588.432 403.794C588.461 403.156 588.461 402.508 588.377 401.81C588.35 401.6 588.165 401.445 587.948 401.456C587.726 401.473 587.553 401.661 587.565 401.888L587.576 401.999C587.615 402.669 587.565 403.401 587.475 404.154C587.375 404.914 587.236 405.689 587.103 406.432C586.813 407.928 586.452 409.424 586.056 410.91C585.3 413.885 584.421 416.838 583.48 419.77C581.726 425.672 579.233 431.236 575.961 436.433C574.375 439.049 572.627 441.57 570.752 443.997C570.001 444.979 569.21 445.926 568.421 446.874C568.226 447.101 568.047 447.345 567.852 447.572L566.339 449.301C565.95 449.749 565.426 450.027 564.841 450.082C564.258 450.144 563.651 449.966 563.189 449.606C562.961 449.422 562.76 449.201 562.604 448.946L562.021 447.943L559.694 443.926L554.953 435.94C554.931 435.908 554.896 435.902 554.869 435.879C554.769 435.785 554.625 435.74 554.496 435.813C554.323 435.896 554.257 436.106 554.346 436.278L558.626 444.519ZM601.589 745.547C600.02 737.441 598.41 729.289 595.767 721.381C595.056 719.431 594.499 717.419 593.658 715.513L591.248 709.761C589.445 706.02 587.659 702.268 585.606 698.661C581.587 691.396 577.124 684.403 572.633 677.459C563.69 663.623 554.668 649.553 550.3 633.715C548.013 625.829 547.539 617.65 547.929 609.433C548.274 601.231 549.231 593.036 550.439 584.889C552.899 568.586 556.333 552.422 559.911 536.307L565.354 512.13C567.079 504.045 568.998 496.005 569.906 487.703C569.951 486.644 570.09 485.62 569.995 484.528L569.957 483.718C569.906 483.436 569.828 483.143 569.767 482.859C569.678 482.245 569.322 481.851 569.094 481.352C568.076 479.436 566.679 477.861 565.299 476.287C562.471 473.212 559.371 470.436 556.221 467.737C550.028 462.478 543.538 457.597 536.91 452.914C536.766 452.808 536.626 452.704 536.476 452.604C536.37 452.526 536.248 452.543 536.137 452.598C536.086 452.62 536.031 452.637 535.992 452.686C535.881 452.841 535.92 453.058 536.081 453.168C542.782 458 549.359 463.049 555.592 468.457C558.698 471.173 561.748 473.966 564.486 477.013C565.81 478.559 567.168 480.133 568.064 481.884C568.587 482.788 568.838 483.546 568.805 484.589C568.883 485.558 568.737 486.589 568.688 487.593C567.747 495.717 565.816 503.79 564.052 511.842L558.519 535.997C554.875 552.111 551.369 568.287 548.837 584.646C547.596 592.83 546.6 601.064 546.21 609.36C545.781 617.617 546.243 626.14 548.553 634.186C553.055 650.379 562.259 664.548 571.237 678.358C575.749 685.284 580.213 692.228 584.22 699.42C586.273 702.994 588.048 706.702 589.852 710.398L592.244 716.073C593.085 717.95 593.636 719.929 594.348 721.858C596.975 729.616 598.605 737.717 600.197 745.813C601.783 753.91 603.214 762.039 604.477 770.191C607.042 786.482 609.152 802.863 610.632 819.283C610.632 819.293 610.637 819.304 610.637 819.316C610.654 819.537 610.855 819.715 611.077 819.692C611.294 819.676 611.444 819.498 611.444 819.283C611.444 819.271 611.461 819.265 611.456 819.249C610.136 802.769 608.195 786.349 605.79 769.991C604.566 761.817 603.146 753.665 601.589 745.547ZM417.693 656.663C412.963 648.023 408.2 639.406 403.374 630.816L387.702 603.132L371.825 575.574C366.505 566.398 361.123 557.26 355.698 548.144C355.597 547.989 355.396 547.927 355.236 548.017C355.063 548.111 355.002 548.322 355.096 548.487C355.107 548.51 355.119 548.537 355.135 548.559C360.205 557.847 365.314 567.101 370.49 576.328L386.128 604.029L401.972 631.609C406.902 640.126 411.889 648.61 416.914 657.072C417.303 657.726 417.683 658.391 418.071 659.051C418.188 659.239 418.428 659.306 418.623 659.2C418.823 659.09 418.901 658.846 418.79 658.646C418.428 657.981 418.055 657.327 417.693 656.663ZM453.789 617.856C452.765 611.777 452.014 605.659 451.363 599.53C450.083 587.267 449.504 574.954 449.954 562.629C450.338 550.311 451.373 538.003 452.659 525.723C453.995 513.449 455.514 501.185 457.418 488.977C457.445 488.795 457.317 488.617 457.134 488.584C456.945 488.551 456.766 488.673 456.733 488.861C454.53 501.042 452.692 513.277 451.235 525.563C449.882 536.623 448.908 547.733 448.391 558.877C447.434 555.947 446.627 552.976 446.048 549.956C445.291 545.86 444.702 541.732 444.478 537.566C444.172 533.403 444.139 529.225 444.24 525.042C444.345 520.868 444.612 516.674 445.068 512.517V512.507C445.09 512.329 444.973 512.169 444.796 512.13C444.612 512.091 444.423 512.208 444.384 512.396C443.482 516.547 442.998 520.747 442.703 524.975C442.414 529.203 442.453 533.442 442.664 537.681C442.959 541.915 443.549 546.138 444.472 550.289C445.357 554.09 446.637 557.802 448.268 561.343C448.251 561.754 448.224 562.164 448.212 562.574C447.951 568.764 447.968 574.976 448.196 581.176C448.502 587.372 448.992 593.551 449.665 599.713C451.084 612.026 453.205 624.273 456.678 636.198C456.683 636.225 456.716 636.237 456.728 636.264C456.816 636.425 456.989 636.53 457.178 636.486C457.217 636.47 457.233 636.436 457.268 636.414C457.418 636.325 457.518 636.165 457.473 635.981L457.467 635.971C455.91 630.019 454.824 623.929 453.789 617.856ZM819.71 522.293C819.737 522.11 819.615 521.938 819.431 521.899C819.287 521.872 819.17 521.954 819.098 522.071C819.075 522.11 819.036 522.132 819.026 522.177L819.02 522.204C817.361 530.882 814.211 539.267 810.471 547.273C806.67 555.264 802.196 562.945 796.942 570.089C795.669 571.895 794.243 573.596 792.896 575.352L790.854 577.974L788.645 580.462L784.215 585.421L779.48 590.098L777.12 592.447C776.317 593.207 775.456 593.911 774.621 594.643L769.59 599.015C766.189 601.874 762.566 604.462 759.054 607.205L759.027 607.233C758.999 607.254 758.999 607.288 758.978 607.315C758.871 607.46 758.838 607.642 758.949 607.792C759.083 607.975 759.339 608.014 759.522 607.881C759.561 607.853 759.6 607.831 759.639 607.798C763.223 605.215 766.929 602.766 770.424 600.04L775.594 595.745C776.452 595.019 777.336 594.326 778.166 593.573L780.597 591.251L785.445 586.591L789.959 581.597L792.202 579.099L794.293 576.461C795.663 574.682 797.127 572.975 798.417 571.146C803.648 563.859 808.19 556.08 811.874 547.905C815.481 539.821 818.346 531.375 819.659 522.592C819.677 522.487 819.698 522.387 819.71 522.293ZM542.704 430.354C543.928 429.068 545.035 427.506 545.948 425.96C547.685 422.768 549.014 419.433 550.016 416.014C551.018 412.599 551.819 409.137 552.298 405.612C552.314 405.44 552.203 405.268 552.031 405.229C551.848 405.185 551.657 405.297 551.614 405.485C550.712 408.876 549.71 412.251 548.553 415.542C547.395 418.84 546.104 422.093 544.374 425.056C542.748 428.038 540.26 430.51 537.795 432.981C535.302 435.397 532.619 437.664 529.803 439.697C529.798 439.709 529.787 439.714 529.776 439.725L529.759 439.736C529.653 439.808 529.614 439.936 529.614 440.063C529.614 440.13 529.608 440.202 529.642 440.263C529.748 440.451 529.97 440.512 530.165 440.429C530.177 440.423 530.193 440.435 530.204 440.423C533.354 438.683 536.209 436.522 538.896 434.151C540.249 432.976 541.49 431.679 542.704 430.354ZM558.498 373.633L558.575 373.577C558.581 373.571 558.581 373.565 558.587 373.56C558.692 373.482 558.747 373.355 558.72 373.222C558.681 373.04 558.498 372.923 558.314 372.962C557.295 373.177 556.511 373.737 555.854 374.408C555.604 374.663 555.37 374.934 555.147 375.211C554.362 376.231 553.817 377.4 553.439 378.581C553.066 379.772 552.827 380.991 552.737 382.211C552.715 382.82 552.665 383.43 552.671 384.033C552.715 384.642 552.727 385.247 552.805 385.851C552.827 386.017 552.949 386.161 553.121 386.2C553.344 386.256 553.573 386.117 553.622 385.896L553.628 385.884C553.906 384.72 554.085 383.568 554.329 382.438C554.59 381.313 554.83 380.199 555.175 379.129C555.175 379.123 555.175 379.119 555.181 379.107C555.57 378.686 555.96 378.287 556.355 378.027C556.656 377.849 556.9 377.782 556.978 377.839C557.045 377.849 557.234 377.966 557.424 378.237C557.819 378.769 558.17 379.567 558.359 380.227C558.531 380.908 558.48 381.673 558.192 382.309L558.147 382.415C558.092 382.542 558.102 382.704 558.192 382.826C558.326 383.002 558.581 383.041 558.759 382.908C559.688 382.215 560.006 381.08 559.944 380.016C559.856 378.929 559.499 378.048 558.87 377.14C558.531 376.719 557.991 376.181 557.157 376.103C556.856 376.093 556.589 376.148 556.344 376.231C556.377 376.176 556.399 376.115 556.433 376.054C556.945 375.111 557.652 374.191 558.498 373.633ZM480.496 402.387C481.999 401.688 482.477 399.549 481.565 397.621C480.652 395.687 478.694 394.69 477.196 395.394C475.693 396.097 475.215 398.23 476.127 400.164C477.04 402.093 479 403.091 480.496 402.387ZM513.325 388.689C511.711 389.065 510.793 391.049 511.283 393.132C511.766 395.21 513.47 396.59 515.083 396.214C516.698 395.842 517.616 393.852 517.126 391.775C516.642 389.697 514.939 388.311 513.325 388.689ZM603.136 542.325H616.648V528.871H603.136V542.325ZM511.166 373.294C536.103 370.424 543.594 361.114 543.594 361.114C543.594 361.114 542.42 370.484 544.267 379.678C545.008 383.352 546.232 387.004 548.208 390.007C548.208 390.007 547.985 383.335 548.942 377.217C549.515 373.555 550.517 370.091 552.242 368.373C556.422 364.206 565.359 362.638 564.669 375.023C564.597 376.297 564.424 377.716 564.135 379.301C564.04 379.81 563.974 380.276 563.89 380.763C563.806 381.129 563.734 381.495 563.64 381.861C563.233 383.474 562.81 385.075 562.292 386.648C561.781 388.217 561.181 389.758 560.518 391.271C559.839 392.766 559.059 394.263 558.158 395.615L558.135 395.643C558.053 395.77 558.057 395.942 558.164 396.064C558.291 396.208 558.509 396.224 558.653 396.097C560.006 394.911 560.996 393.47 561.881 391.969C562.271 391.32 562.594 390.639 562.91 389.957C562.699 397.821 564.708 399.743 564.708 399.743L572.21 390.007L583.374 390.007L600.365 400.89L601.811 401.821L602.089 401.999L617.472 403.451L630.127 404.642C630.127 404.642 594.304 391.503 587.976 352.669C581.644 313.84 567.079 276.418 505.69 284.703C432.329 294.605 450.556 382.094 450.556 382.094C450.556 382.094 453.065 381.673 457.206 381.013C457 388.405 457.011 397.067 457.457 406.554C458.007 418.152 459.227 430.986 461.542 444.286C461.641 444.873 461.741 445.461 461.848 446.054C462.388 449.018 462.982 452.011 463.633 455.009C463.918 454.814 464.218 454.587 464.496 454.41C474.574 447.927 481.108 442.562 485.326 438.239C486.573 436.965 487.853 435.724 489.144 434.495C475.566 421.161 462.854 399.655 460.317 380.514C472.672 378.553 494.353 375.234 511.166 373.294ZM176.148 504.998C175.603 505.497 175.119 506.035 174.669 506.589L179.61 509.415L180.685 507.652C181.391 506.505 182.888 506.123 184.057 506.799L194.625 512.873C195.866 513.587 196.245 515.194 195.454 516.386L195.009 517.056L198.993 519.566C200.452 514.973 199.495 509.753 195.999 505.929C190.774 500.21 181.886 499.794 176.148 504.998ZM179.61 509.415L172.67 520.774L179.61 509.415Z" fill="#1D1B19"/>
</svg>
