<svg width="40" height="41" viewBox="0 0 40 41" fill="none" xmlns="http://www.w3.org/2000/svg">
<g clip-path="url(#clip0_667_2046)">
<path fill-rule="evenodd" clip-rule="evenodd" d="M29.4865 6.61962H35.4865C37.6956 6.61962 39.4865 8.50474 39.4865 10.8301V36.0933C39.4865 38.4187 37.6956 40.3038 35.4865 40.3038H3.48648C1.27734 40.3038 -0.513519 38.4187 -0.513519 36.0933V10.8301C-0.513519 8.50474 1.27734 6.61962 3.48648 6.61962H9.48648C9.48648 3.13151 12.1728 0.303833 15.4865 0.303833H23.4865C26.8002 0.303833 29.4865 3.13151 29.4865 6.61962ZM23.4865 4.51436H15.4865C14.3819 4.51436 13.4865 5.45692 13.4865 6.61962H25.4865C25.4865 5.45692 24.591 4.51436 23.4865 4.51436ZM35.4865 10.8301H3.48648V15.0407H35.4865V10.8301ZM3.48648 36.0933V19.2512H9.48648V23.4617H17.4865V19.2512H21.4865V23.4617H29.4865V19.2512H35.4865V36.0933H3.48648Z" fill="white" fill-opacity="0.9"/>
</g>
<defs>
<clipPath id="clip0_667_2046">
<rect width="38.9189" height="40.5063" fill="white" transform="matrix(-1 0 0 1 39.4865 0.303833)"/>
</clipPath>
</defs>
</svg>
